<?xml version="1.0" encoding="utf-8"?>
<!-- Generator: Adobe Illustrator 15.1.0, SVG Export Plug-In . SVG Version: 6.00 Build 0)  -->
<!DOCTYPE svg PUBLIC "-//W3C//DTD SVG 1.1//EN" "http://www.w3.org/Graphics/SVG/1.1/DTD/svg11.dtd">
<svg version="1.1" id="Layer_1" xmlns="http://www.w3.org/2000/svg" xmlns:xlink="http://www.w3.org/1999/xlink" x="0px" y="0px"
	 width="2048px" height="1669px" viewBox="0 378.629 2048 1669" enable-background="new 0 378.629 2048 1669" xml:space="preserve">
<g>
	<path fill="none" d="M1309.538,657.825c-76.454-76.453-178.103-118.558-286.224-118.558c-108.122,0-209.771,42.104-286.224,118.561
		c-76.453,76.45-118.559,178.101-118.559,286.222h809.563C1428.098,835.928,1385.992,734.278,1309.538,657.825z"/>
	<path d="M1575.289,944.05c0-74.483-14.604-146.779-43.405-214.875c-27.81-65.739-67.595-124.762-118.267-175.431
		c-50.668-50.668-109.69-90.459-175.429-118.264c-68.095-28.801-140.391-43.406-214.874-43.406
		c-74.484,0-146.78,14.605-214.876,43.407C742.7,463.288,683.678,503.075,633.01,553.745
		c-50.669,50.67-90.458,109.692-118.266,175.431c-28.802,68.096-43.404,140.39-43.404,214.874H0L382.136,2048h1321.106
		L2042.92,944.05H1575.289L1575.289,944.05z M737.092,657.825c76.451-76.453,178.103-118.558,286.224-118.558
		c108.118,0,209.771,42.104,286.222,118.561c76.453,76.452,118.562,178.103,118.562,286.222H618.533
		C618.533,835.928,660.639,734.278,737.092,657.825z M1594.531,1900.805H486.948l-280.23-809.563h1636.912L1594.531,1900.805z"/>
</g>
</svg>
